<?xml version="1.0" standalone="no"?>
<!DOCTYPE svg PUBLIC "-//W3C//DTD SVG 20010904//EN"
 "http://www.w3.org/TR/2001/REC-SVG-20010904/DTD/svg10.dtd">
<svg version="1.0" xmlns="http://www.w3.org/2000/svg"
 width="1200.000000pt" height="1200.000000pt" viewBox="0 0 1200.000000 1200.000000"
 preserveAspectRatio="xMidYMid meet">

<g transform="translate(0.000000,1200.000000) scale(0.100000,-0.100000)"
fill="#000000" stroke="none">
<path d="M5750 10239 c-167 -9 -400 -39 -580 -75 -1118 -221 -2086 -875 -2727
-1844 -240 -362 -447 -829 -552 -1245 -185 -735 -182 -1451 9 -2180 207 -790
681 -1550 1300 -2087 743 -645 1611 -995 2597 -1049 587 -31 1224 74 1768 294
471 189 851 422 1235 755 619 537 1093 1297 1300 2087 191 729 194 1445 9
2180 -83 327 -230 691 -406 1004 -560 994 -1514 1737 -2598 2021 -299 78 -581
123 -885 140 -203 11 -256 11 -470 -1z m465 -89 c731 -39 1379 -247 2025 -650
323 -201 685 -520 949 -836 671 -803 1016 -1833 961 -2872 -19 -356 -69 -652
-167 -977 -130 -435 -323 -833 -587 -1210 -191 -274 -473 -578 -741 -801 -802
-667 -1827 -1009 -2862 -954 -767 41 -1453 268 -2103 696 -399 262 -809 662
-1086 1059 -168 240 -317 508 -427 765 -249 587 -360 1209 -327 1837 32 601
172 1131 441 1665 270 537 649 1001 1139 1394 639 512 1498 839 2325 883 220
12 252 12 460 1z"/>
<path d="M7297 9136 c-98 -30 -184 -59 -190 -65 -8 -8 -13 -67 -15 -176 l-3
-164 -55 -7 c-146 -18 -198 -193 -83 -275 46 -32 134 -34 176 -3 56 42 67 76
71 220 l4 132 112 31 c61 18 119 34 129 37 15 5 17 -3 17 -64 l0 -69 -52 -7
c-93 -13 -141 -55 -154 -134 -14 -86 62 -172 151 -172 54 0 111 36 135 85 19
39 20 62 20 347 0 335 -1 339 -58 337 -15 0 -107 -24 -205 -53z m163 -110 l0
-54 -116 -31 c-63 -18 -122 -35 -130 -38 -11 -4 -14 6 -14 48 l0 54 128 37
c70 20 128 37 130 37 1 1 2 -23 2 -53z m-370 -441 c0 -34 -5 -47 -19 -55 -45
-24 -81 -2 -81 49 0 25 36 51 72 51 26 0 28 -3 28 -45z m370 8 c0 -65 -56 -96
-95 -53 -36 40 0 88 68 89 25 1 27 -2 27 -36z"/>
<path d="M5396 8764 c-9 -8 -16 -25 -16 -37 0 -34 37 -239 48 -267 11 -27 45
-61 80 -79 19 -10 22 -20 22 -66 0 -53 -1 -55 -27 -55 -63 -1 -140 -55 -162
-113 -44 -115 42 -247 160 -247 29 0 29 0 29 -62 0 -35 7 -94 15 -133 8 -38
15 -71 15 -72 0 -2 -19 -3 -42 -3 -56 0 -124 -35 -151 -76 -13 -20 -36 -38
-57 -45 -101 -34 -203 -142 -229 -243 l-11 -46 -295 0 c-282 0 -296 -1 -315
-20 -20 -20 -20 -32 -20 -527 1 -550 2 -557 56 -582 18 -8 420 -11 1505 -11
1609 0 1521 -3 1547 55 16 35 15 164 -1 195 -11 21 -11 31 -1 55 18 42 19 424
1 448 -11 16 -37 17 -292 15 -154 -2 -287 -7 -296 -11 -15 -7 -17 12 -21 195
-5 177 -8 210 -27 260 -38 99 -121 182 -211 213 -31 10 -52 26 -67 49 -27 42
-96 76 -152 76 -42 0 -43 1 -36 28 18 64 24 111 25 175 l0 67 32 0 c144 0 224
191 125 299 -27 29 -93 60 -129 61 l-26 0 -4 158 c-3 139 -6 163 -27 210 -14
30 -41 68 -64 88 -73 62 -93 64 -553 64 -362 0 -415 -2 -428 -16z m880 -103
c51 -23 83 -73 91 -140 l6 -51 -415 0 c-362 0 -417 2 -428 15 -12 14 -38 133
-39 178 -1 16 23 17 372 17 341 0 375 -2 413 -19z m-596 -298 c0 -5 -9 -19
-20 -33 l-20 -25 0 33 c0 25 4 32 20 32 11 0 20 -3 20 -7z m597 -113 l93 -114
0 -80 0 -80 -57 -58 -56 -57 -26 18 c-38 27 -94 49 -158 60 -31 6 -58 13 -60
15 -2 2 6 24 18 49 19 39 21 50 11 72 -9 19 -19 25 -42 25 -27 0 -33 -7 -65
-70 -19 -38 -35 -76 -35 -83 0 -8 -19 -19 -42 -26 -24 -7 -59 -23 -79 -36
l-36 -23 -52 52 -51 52 0 89 0 90 90 113 91 112 182 -2 182 -3 92 -115z m91
88 c4 -34 -4 -35 -29 -5 -25 29 -24 39 4 35 16 -2 23 -11 25 -30z m-838 -258
c0 -77 -1 -80 -24 -80 -39 0 -76 36 -76 76 0 42 37 84 75 84 25 0 25 -1 25
-80z m1015 55 c49 -48 18 -135 -47 -135 l-28 0 0 80 c0 79 0 80 25 80 14 0 37
-11 50 -25z m-419 -315 c22 -9 60 -31 84 -49 24 -17 48 -31 54 -31 7 0 30 18
51 40 21 22 43 40 48 40 12 0 -2 -107 -20 -152 -12 -29 -21 -38 -39 -38 -27 0
-44 -26 -44 -69 0 -33 -30 -61 -110 -102 -66 -33 -195 -38 -270 -10 -85 32
-140 76 -140 113 0 42 -17 68 -44 68 -31 0 -47 38 -54 125 l-5 70 46 -42 c26
-24 52 -43 58 -43 6 0 28 13 48 29 102 80 228 99 337 51z m-486 -467 c0 -155
-2 -174 -14 -157 -12 15 -30 20 -103 24 l-88 5 -3 126 c-3 124 -2 126 24 152
24 25 34 27 105 27 l79 0 0 -177z m904 152 c26 -24 26 -26 26 -153 0 -126 -1
-130 -26 -156 -24 -24 -34 -26 -105 -26 l-79 0 0 180 0 180 79 0 c69 0 81 -3
105 -25z m-1214 -195 l0 -90 -80 0 -80 0 10 25 c20 53 40 83 79 118 64 58 71
52 71 -53z m443 76 c49 -32 146 -56 226 -56 82 0 188 26 226 54 11 9 23 16 28
16 4 0 7 -34 7 -75 0 -72 -2 -77 -35 -114 -52 -57 -139 -93 -227 -93 -58 0
-81 5 -133 31 -35 17 -77 47 -94 67 -29 32 -31 40 -31 109 0 41 2 75 5 75 3 0
16 -6 28 -14z m972 -27 c70 -65 85 -106 85 -237 l0 -112 -186 0 c-109 0 -193
-4 -205 -10 -17 -10 -19 -23 -19 -155 l0 -145 -223 0 c-259 0 -299 -8 -370
-70 -44 -39 -47 -40 -116 -40 l-71 0 0 240 0 240 40 0 c27 0 42 5 49 18 9 16
11 16 38 -1 91 -58 204 -83 298 -66 55 10 139 44 178 71 15 11 20 10 28 -4 9
-16 26 -18 130 -18 210 0 265 47 276 236 3 52 10 94 15 94 5 0 28 -18 53 -41z
m-1215 -604 l0 -365 -495 0 -495 0 0 358 c0 197 3 362 7 365 3 4 226 7 495 7
l488 0 0 -365z m1300 -52 c0 -232 -5 -252 -72 -293 -32 -19 -52 -20 -475 -20
l-443 0 0 38 c0 61 38 123 90 150 43 22 52 22 380 22 248 0 339 3 348 12 19
19 15 66 -7 78 -11 5 -45 10 -75 10 l-56 0 0 105 0 105 155 0 155 0 0 -207z
m210 -59 c0 -93 -2 -105 -16 -100 -9 3 -19 6 -23 6 -5 0 -20 12 -35 26 -38 39
-37 105 3 145 16 16 39 29 50 29 20 0 21 -5 21 -106z m420 -58 c0 -136 -3
-167 -16 -180 -12 -13 -40 -16 -141 -16 -172 0 -163 -11 -163 197 l0 163 160
0 160 0 0 -164z m-1714 -112 c-3 -9 -6 -31 -6 -50 l0 -34 -50 0 -50 0 0 50 0
50 56 0 c47 0 55 -3 50 -16z m1237 -21 c62 -19 53 -13 61 -40 7 -23 6 -23 -73
-23 -45 0 -81 2 -81 5 0 8 33 75 37 75 3 0 28 -7 56 -17z m477 -218 l0 -55
-1460 0 -1460 0 0 48 c0 27 3 52 7 55 3 4 660 7 1460 7 l1453 0 0 -55z"/>
<path d="M5756 8134 c-19 -19 -20 -35 -3 -56 19 -24 43 -28 66 -12 23 17 28
53 9 72 -17 17 -54 15 -72 -4z"/>
<path d="M6172 8138 c-32 -32 5 -92 49 -81 29 8 44 45 30 72 -13 23 -59 29
-79 9z"/>
<path d="M5865 7724 c-28 -28 -15 -67 28 -87 75 -35 229 -17 255 30 12 20 -3
59 -25 67 -8 3 -40 -2 -72 -10 -54 -15 -62 -15 -107 0 -59 20 -59 20 -79 0z"/>
<path d="M5035 6900 c-101 -22 -151 -121 -106 -213 85 -176 352 -53 273 126
-30 67 -97 102 -167 87z m73 -118 c16 -22 15 -42 -5 -64 -20 -22 -51 -23 -75
-1 -24 21 -23 48 3 74 22 22 55 19 77 -9z"/>
<path d="M4745 8328 c-43 -16 -83 -34 -87 -41 -4 -7 -8 -63 -8 -124 l0 -113
-46 0 c-109 0 -182 -94 -153 -197 30 -107 175 -145 251 -66 43 45 48 73 48
261 l0 177 62 20 c71 23 101 46 91 72 -18 52 -43 54 -158 11z m-95 -416 c0
-71 -68 -96 -100 -38 -11 22 -11 29 4 51 13 20 25 25 56 25 40 0 40 0 40 -38z"/>
<path d="M7145 8278 c-44 -16 -86 -36 -92 -45 -9 -11 -13 -54 -13 -124 l0
-106 -49 -6 c-66 -8 -104 -29 -131 -72 -45 -73 -20 -169 56 -212 51 -29 97
-29 149 2 68 39 75 64 75 273 l0 181 55 20 c31 12 59 21 64 21 13 0 41 35 41
52 0 21 -33 48 -56 47 -10 -1 -55 -15 -99 -31z m-105 -415 c0 -61 -48 -94 -84
-57 -37 36 -6 94 51 94 31 0 33 -2 33 -37z"/>
<path d="M7103 7334 c4 -22 24 -57 52 -91 25 -30 45 -65 45 -76 0 -11 -17 -41
-38 -66 -48 -58 -53 -66 -62 -107 l-8 -34 54 0 c43 0 54 3 54 16 0 9 17 36 39
60 74 85 75 169 1 262 -22 27 -40 55 -40 61 0 7 -20 11 -51 11 l-52 0 6 -36z"/>
<path d="M7363 7334 c4 -22 24 -57 52 -91 25 -30 45 -65 45 -76 0 -11 -17 -41
-38 -66 -48 -58 -53 -66 -62 -107 l-8 -34 54 0 c43 0 54 3 54 16 0 9 17 36 39
60 74 85 75 169 1 262 -22 27 -40 55 -40 61 0 7 -20 11 -51 11 l-52 0 6 -36z"/>
<path d="M4782 5252 c-56 -202 -102 -371 -102 -375 0 -5 19 -7 42 -5 l41 3 16
60 16 60 95 0 95 0 16 -60 16 -60 41 -3 c23 -2 42 0 42 5 1 15 -205 743 -210
743 -3 0 -51 -166 -108 -368z m143 -19 c15 -65 30 -126 33 -135 4 -16 -4 -18
-68 -18 -70 0 -72 1 -66 23 3 12 18 73 33 134 16 62 30 113 33 113 3 0 19 -53
35 -117z"/>
<path d="M5190 5245 l0 -375 40 0 40 0 0 375 0 375 -40 0 -40 0 0 -375z"/>
<path d="M5410 5040 l0 -340 40 0 40 0 0 91 c0 83 2 91 18 84 44 -17 79 -15
122 7 36 19 51 34 75 82 26 53 29 70 29 150 0 100 -13 153 -52 205 -42 57
-122 77 -182 46 -27 -14 -33 -14 -60 0 l-30 16 0 -341z m209 234 c31 -40 44
-100 38 -180 -6 -77 -25 -127 -56 -144 -25 -13 -67 -13 -92 0 -18 10 -19 23
-19 168 0 110 4 162 12 170 7 7 31 12 54 12 34 0 47 -5 63 -26z"/>
<path d="M5941 5359 c-78 -48 -105 -117 -99 -258 3 -84 7 -103 32 -144 44 -77
115 -109 192 -88 64 18 69 24 54 61 -9 23 -17 29 -29 24 -34 -14 -72 -16 -102
-4 -33 14 -69 73 -69 115 l0 25 110 0 c110 0 110 0 116 26 11 44 -2 147 -25
192 -36 70 -113 92 -180 51z m104 -73 c13 -9 20 -30 23 -70 l4 -56 -76 0 c-74
0 -76 1 -76 24 0 83 71 142 125 102z"/>
<path d="M6405 5368 c-16 -6 -39 -17 -49 -24 -17 -12 -24 -10 -53 7 l-33 21 0
-251 0 -251 40 0 40 0 0 194 c0 190 1 195 22 210 12 9 37 16 55 16 32 0 33 1
33 45 0 48 -4 51 -55 33z"/>
<path d="M6654 5366 c-127 -57 -155 -327 -47 -447 45 -49 96 -65 162 -49 71
17 76 22 57 58 -14 28 -19 30 -42 22 -65 -25 -115 -3 -145 64 -34 76 -34 76
96 76 l115 0 0 83 c0 88 -19 146 -58 181 -27 24 -98 30 -138 12z m102 -92 c10
-14 18 -44 18 -67 l1 -42 -69 -3 c-38 -2 -73 1 -78 6 -15 15 12 91 40 113 35
27 68 24 88 -7z"/>
<path d="M7100 5369 c-13 -5 -33 -17 -42 -26 -17 -15 -21 -15 -48 5 -16 12
-32 22 -35 22 -3 0 -5 -112 -5 -250 l0 -250 40 0 40 0 2 198 3 197 38 18 c39
20 68 18 102 -7 19 -13 20 -28 23 -210 l3 -196 40 0 40 0 -3 203 c-3 219 -10
248 -63 283 -31 20 -102 27 -135 13z"/>
<path d="M4670 3936 l0 -388 43 7 c137 20 201 54 237 124 39 78 17 183 -50
232 l-29 22 28 33 c88 99 54 254 -69 317 -30 15 -79 30 -107 34 l-53 6 0 -387z
m155 254 c53 -55 50 -146 -5 -202 -16 -15 -38 -28 -49 -28 -20 0 -21 5 -21
128 0 71 3 131 6 134 10 11 42 -4 69 -32z m13 -336 c31 -20 55 -78 47 -114 -8
-38 -55 -80 -98 -87 l-37 -6 0 118 0 118 32 -7 c18 -3 43 -13 56 -22z"/>
<path d="M5105 4240 c-39 -43 15 -107 70 -82 54 25 35 102 -25 102 -15 0 -35
-9 -45 -20z"/>
<path d="M5650 4239 c-15 -28 -5 -66 21 -80 52 -27 106 29 74 77 -21 32 -79
34 -95 3z"/>
<path d="M5360 4145 c0 -78 -2 -85 -20 -85 -16 0 -20 -7 -20 -35 0 -28 4 -35
19 -35 18 0 19 -10 23 -157 2 -128 7 -165 21 -195 21 -42 55 -67 104 -78 l33
-8 0 43 c0 37 -3 44 -25 49 -44 11 -55 51 -55 206 l0 140 40 0 c39 0 40 1 40
35 0 34 -1 35 -40 35 l-40 0 0 85 0 85 -40 0 -40 0 0 -85z"/>
<path d="M6005 4046 c-48 -25 -48 -25 -76 -5 -15 10 -30 19 -33 19 -3 0 -6
-112 -6 -250 l0 -250 40 0 40 0 0 195 0 194 30 16 c16 8 43 15 60 15 29 0 30
2 30 45 0 54 -12 57 -85 21z"/>
<path d="M6271 4053 c-70 -35 -107 -134 -98 -262 10 -152 95 -241 207 -216
l32 7 -17 -31 c-14 -28 -78 -84 -108 -94 -7 -2 -5 -14 9 -35 19 -31 20 -31 49
-16 60 31 98 68 121 118 23 49 24 59 24 299 l0 248 -30 -16 c-28 -14 -33 -14
-52 0 -29 20 -94 19 -137 -2z m113 -63 l26 -10 0 -159 c0 -175 1 -171 -64
-171 -62 0 -96 63 -96 177 0 83 24 141 64 159 38 16 39 16 70 4z"/>
<path d="M6724 4056 c-127 -57 -155 -327 -47 -447 45 -49 96 -65 162 -49 71
17 76 22 57 58 -14 28 -19 30 -42 22 -65 -25 -115 -3 -145 64 -34 76 -34 76
96 76 l115 0 0 83 c0 88 -19 146 -58 181 -27 24 -98 30 -138 12z m102 -92 c10
-14 18 -44 18 -67 l1 -42 -69 -3 c-38 -2 -73 1 -78 6 -15 15 12 91 40 113 35
27 68 24 88 -7z"/>
<path d="M7170 4059 c-13 -5 -33 -17 -42 -26 -17 -15 -21 -15 -48 5 -16 12
-32 22 -35 22 -3 0 -5 -112 -5 -250 l0 -250 40 0 40 0 2 198 3 197 38 18 c39
20 68 18 102 -7 19 -13 20 -28 23 -210 l3 -196 40 0 40 0 -3 203 c-3 219 -10
248 -63 283 -31 20 -102 27 -135 13z"/>
<path d="M5110 3810 l0 -250 40 0 40 0 0 250 0 250 -40 0 -40 0 0 -250z"/>
<path d="M5660 3810 l0 -250 35 0 35 0 0 250 0 250 -35 0 -35 0 0 -250z"/>
</g>
</svg>
